<?xml version="1.0" encoding="utf-8"?>
<!-- Generator: Adobe Illustrator 15.1.0, SVG Export Plug-In . SVG Version: 6.00 Build 0)  -->
<!DOCTYPE svg PUBLIC "-//W3C//DTD SVG 1.1//EN" "http://www.w3.org/Graphics/SVG/1.1/DTD/svg11.dtd">
<svg version="1.1" id="Слой_1" xmlns="http://www.w3.org/2000/svg" xmlns:xlink="http://www.w3.org/1999/xlink" x="0px" y="0px"
	 width="989px" height="558px" viewBox="0 0 989 558" enable-background="new 0 0 989 558" xml:space="preserve">
<rect x="88.411" y="11.531" fill="#FAFCFF" width="738.181" height="510.651"/>
<path fill="#BFBFBF" stroke="#687074" stroke-width="0.25" stroke-miterlimit="10" d="M55.166,468.709
	c-0.074,22.376-0.071,44.753,0.012,67.13"/>
<path fill="#BFBFBF" stroke="#687074" stroke-width="0.25" stroke-miterlimit="10" d="M55.178,1.531
	c-0.086,146.034-0.086,296.438-0.007,441.965"/>
<polygon fill="#BFBFBF" points="49.017,12.268 50.838,12.747 55.178,4.104 59.517,12.747 61.337,12.268 55.178,0 "/>
<line fill="none" stroke="#BFBFBF" stroke-width="0.75" stroke-miterlimit="10" x1="983.458" y1="522.391" x2="41.332" y2="522.391"/>
<polygon fill="#BFBFBF" points="970.39,517.41 969.719,518.884 981.822,522.391 969.719,525.896 970.39,527.366 987.571,522.391 "/>
<path fill="none" stroke="#D8D8D8" stroke-width="2" stroke-miterlimit="10" d="M825.208,129.787
	c38.706-3.421,77.601-5.218,116.5-5.229"/>
<path id="red-arc_1_" fill="none" stroke="#FF4011" stroke-width="2" stroke-miterlimit="10" d="M581.001,164.739
	c51.001-12.861,131.868-23.915,245.277-34.47"/>
<path id="blue-arc_1_" fill="none" stroke="#2C6FDE" stroke-width="2" stroke-miterlimit="10" d="M333.5,248.889
	c19.179-11.134,41.406-18.712,62.575-27.805c20.111-7.581,40.223-15.159,60.335-21.98c16.934-5.306,32.858-11.691,50.805-15.537
	c21.024-5.709,40.225-10.233,61.266-15.567"/>
<path id="green-arc_1_" fill="none" stroke="#54BB50" stroke-width="2" stroke-miterlimit="10" d="M88.411,443.496
	c17.897-25.077,42.812-48.065,67.723-72.335c49.827-43.428,106.769-83.968,166.188-116.661"/>
<path fill="none" stroke="#D8D8D8" stroke-width="2" stroke-miterlimit="10" d="M68.875,486.973
	c1.241-7.282,5.152-15.816,8.144-23.961c2.854-6.24,6.408-12.878,11.449-18.695"/>
<ellipse fill="none" stroke="#2C6FDE" stroke-width="3" stroke-miterlimit="10" cx="575.543" cy="165.799" rx="7.063" ry="6.105"/>
<text transform="matrix(4.489659e-011 -1 1 4.489659e-011 44.4473 302.7385)" fill="#636B6F" font-family="'Circe-Regular'" font-size="17">ДОХОДНОСТЬ</text>
<text transform="matrix(1 0 0 1 461.0918 550.51)" fill="#2C2D2D" font-family="'Circe-Regular'" font-size="17">УРОВЕНЬ РИСКА</text>
<text transform="matrix(1 0 0 1 0 459.4485)" fill="#B7B7B7" font-family="'Circe-Regular'" font-size="16">Депозиты</text>
<text transform="matrix(1 0 0 1 859.0918 164.7385)" fill="#B7B7B7" font-family="'Circe-Regular'" font-size="16">Акции</text>
<text transform="matrix(1 0 0 1 159.2158 381.5149)" fill="#54BB50" font-family="'Circe-Regular'" font-size="18">                         </text>
<text transform="matrix(1 0 0 1 166.332 399.1809)" fill="#54BB50" font-family="'Circe-Regular'" font-size="18">100% </text>
<text transform="matrix(1 0 0 1 215.7573 399.5803)" fill="#54BB50" font-family="'Circe-Regular'" font-size="18">защита </text>
<text transform="matrix(1 0 0 1 272.9985 379.9143)" fill="#54BB50" font-family="'Circe-Regular'" font-size="18">                         </text>
<text transform="matrix(1 0 0 1 386.8784 249.5022)" fill="#2C6FDE" font-family="'Circe-Regular'" font-size="18">Частичная</text>
<text transform="matrix(1 0 0 1 191.6172 417.634)" fill="#54BB50" font-family="'Circe-Regular'" font-size="18">капитала</text>
<text transform="matrix(1 0 0 1 277.2637 404.3147)" fill="#54BB50" font-family="'Circe-Regular'" font-size="18">                     </text>
<text transform="matrix(1 0 0 1 441.0205 261.0022)" fill="#2C6FDE" font-family="'Circe-Regular'" font-size="18">                         </text>
<text transform="matrix(1 0 0 1 474.3306 249.5022)" fill="#2C6FDE" font-family="'Circe-Regular'" font-size="18">защита</text>
<text transform="matrix(1 0 0 1 497.8975 287.4016)" fill="#2C6FDE" font-family="'Circe-Regular'" font-size="18">                         </text>
<text transform="matrix(1 0 0 1 431.8335 267.5022)" fill="#2C6FDE" font-family="'Circe-Regular'" font-size="18">капитала</text>
<text transform="matrix(1 0 0 1 437.8076 313.802)" fill="#2C6FDE" font-family="'Circe-Regular'" font-size="18">                     </text>
<text id="red-text_1_" transform="matrix(1 0 0 1 666.7627 175.2043)" fill="#FF4011" font-family="'Circe-Regular'" font-size="18">Рисковые</text>
<text transform="matrix(1.0505 -0.0013 0.0012 1 120.0557 55.3225)" fill="#AFB0B2" font-family="'Circe-Regular'" font-size="26" letter-spacing="15.231">СТРУКТУРНЫЕ ПРОДУКТЫ</text>
<ellipse fill="none" stroke="#2C6FDE" stroke-width="3" stroke-miterlimit="10" cx="329.215" cy="251.529" rx="6.233" ry="5.64"/>
<line fill="none" stroke="#2C6FDE" stroke-width="3" stroke-miterlimit="10" x1="95.087" y1="439.562" x2="81.735" y2="447.433"/>
<line fill="none" stroke="#2C6FDE" stroke-width="3" stroke-miterlimit="10" x1="84.448" y1="436.835" x2="92.373" y2="450.157"/>
<g>
	<g>
		<line fill="none" stroke="#B1B1B2" stroke-width="0.75" stroke-miterlimit="10" x1="88.41" y1="13.714" x2="88.41" y2="19.524"/>
		
			<line fill="none" stroke="#B1B1B2" stroke-width="0.75" stroke-miterlimit="10" stroke-dasharray="11.9093,11.9093" x1="88.41" y1="31.055" x2="88.41" y2="509.608"/>
		
			<line fill="none" stroke="#B1B1B2" stroke-width="0.75" stroke-miterlimit="10" x1="88.41" y1="515.373" x2="88.41" y2="521.183"/>
	</g>
</g>
<g>
	<g>
		<line fill="none" stroke="#B1B1B2" stroke-width="0.75" stroke-miterlimit="10" x1="826.9" y1="11.738" x2="826.9" y2="17.601"/>
		
			<line fill="none" stroke="#B1B1B2" stroke-width="0.75" stroke-miterlimit="10" stroke-dasharray="11.9093,11.9093" x1="826.9" y1="29.238" x2="826.9" y2="512.201"/>
		
			<line fill="none" stroke="#B1B1B2" stroke-width="0.75" stroke-miterlimit="10" x1="826.9" y1="518.021" x2="826.9" y2="523.884"/>
	</g>
</g>
<line fill="none" stroke="#B1B1B2" stroke-width="0.75" stroke-miterlimit="10" stroke-dasharray="12" x1="329.422" y1="85.738" x2="329.422" y2="522.391"/>
<line fill="none" stroke="#B1B1B2" stroke-width="0.75" stroke-miterlimit="10" stroke-dasharray="12" x1="575.605" y1="77.751" x2="575.605" y2="521.884"/>
<line fill="none" stroke="#2C6FDE" stroke-width="3" stroke-miterlimit="10" x1="830.82" y1="123.293" x2="822.363" y2="136.281"/>
<line fill="none" stroke="#2C6FDE" stroke-width="3" stroke-miterlimit="10" x1="820.081" y1="125.584" x2="833.104" y2="133.989"/>
</svg>
